<?xml version="1.0" standalone="no"?>
<!DOCTYPE svg PUBLIC "-//W3C//DTD SVG 20010904//EN"
 "http://www.w3.org/TR/2001/REC-SVG-20010904/DTD/svg10.dtd">
<svg version="1.0" xmlns="http://www.w3.org/2000/svg"
 width="225.000000pt" height="225.000000pt" viewBox="0 0 225.000000 225.000000"
 preserveAspectRatio="xMidYMid meet">

<g transform="translate(0.000000,225.000000) scale(0.100000,-0.100000)"
fill="#000000" stroke="none">
<path d="M1102 1900 c-722 -5 -744 -6 -758 -24 -12 -17 -14 -99 -14 -486 l0
-467 23 -21 c23 -22 30 -22 300 -22 223 0 277 -3 277 -13 0 -7 -7 -37 -15 -65
l-16 -52 -59 0 c-63 0 -74 -7 -74 -50 l-1 -25 -110 -3 c-110 -3 -136 -12 -113
-39 16 -20 1164 -19 1171 0 11 29 -10 36 -118 39 l-110 3 -1 26 c-2 42 -12 49
-74 49 l-59 0 -16 52 c-8 28 -15 58 -15 65 0 10 55 13 278 13 278 0 279 0 300
23 22 23 22 25 22 486 0 282 -4 469 -10 481 -5 10 -22 22 -37 26 -16 5 -362 7
-771 4z m766 -447 l2 -393 -745 0 -745 0 0 388 c0 214 3 392 7 395 3 4 338 6
742 5 l736 -3 3 -392z m0 -480 l-3 -38 -740 0 -740 0 -3 38 -3 37 746 0 746 0
-3 -37z m-598 -145 c6 -24 13 -51 16 -60 5 -17 -7 -18 -161 -18 -154 0 -166 1
-161 18 2 9 10 36 17 60 l12 42 133 0 133 0 11 -42z m160 -143 c0 -13 -41 -15
-305 -15 -264 0 -305 2 -305 15 0 13 41 15 305 15 264 0 305 -2 305 -15z"/>
<path d="M929 1689 c-107 -50 -200 -96 -208 -104 -20 -20 -6 -33 75 -70 l73
-34 3 -158 3 -158 250 0 250 0 3 157 3 158 49 25 50 25 0 -46 c0 -35 -5 -50
-22 -64 -31 -25 -30 -86 1 -111 33 -27 77 -24 106 6 32 31 32 66 0 103 -21 25
-25 40 -25 95 0 40 -5 69 -13 75 -10 9 -278 136 -373 177 -29 13 -39 10 -225
-76z m604 -311 c6 -18 -3 -38 -17 -38 -18 0 -35 21 -29 36 6 17 40 18 46 2z"/>
<path d="M382 518 c-16 -21 -24 -77 -17 -124 8 -53 37 -74 74 -55 22 12 31 71
11 71 -5 0 -10 -11 -10 -24 0 -13 -6 -26 -14 -29 -26 -10 -37 19 -34 85 3 55
5 63 23 63 13 0 21 -8 23 -22 2 -13 8 -23 13 -23 13 0 11 44 -3 58 -16 16 -53
15 -66 0z"/>
<path d="M500 447 c0 -90 11 -117 50 -117 39 0 50 27 50 116 0 49 -4 84 -10
84 -6 0 -10 -31 -10 -73 0 -79 -14 -113 -40 -97 -10 6 -15 31 -17 87 -3 109
-23 109 -23 0z"/>
<path d="M640 435 c0 -78 3 -95 15 -95 11 0 15 12 15 45 0 25 4 45 9 45 4 0
14 -20 21 -45 7 -25 19 -45 26 -45 11 0 11 7 0 43 -11 36 -11 47 0 62 8 10 14
25 14 32 0 23 -39 53 -70 53 l-30 0 0 -95z m68 46 c3 -21 -11 -40 -30 -41 -5
0 -8 16 -8 36 0 28 3 35 18 32 9 -2 19 -14 20 -27z"/>
<path d="M788 519 c-28 -16 -21 -52 17 -89 22 -21 35 -42 33 -54 -4 -27 -28
-32 -35 -7 -6 25 -36 29 -31 4 2 -10 15 -24 30 -32 24 -14 28 -14 48 4 28 25
19 60 -26 101 -22 21 -32 37 -28 48 9 23 33 20 43 -6 8 -21 10 -21 16 -5 15
35 -29 59 -67 36z"/>
<path d="M912 518 c-7 -7 -12 -43 -12 -90 0 -74 2 -79 25 -90 19 -9 29 -8 50
6 23 15 25 23 25 86 0 49 -4 73 -16 84 -18 19 -55 21 -72 4z m56 -83 c3 -73
-7 -97 -33 -75 -19 15 -21 120 -3 138 23 23 33 5 36 -63z"/>
<path d="M1046 514 c-24 -23 -20 -40 19 -83 33 -36 42 -60 29 -74 -10 -9 -34
4 -34 19 0 8 -7 14 -15 14 -21 0 -19 -16 5 -40 24 -24 43 -25 64 -4 25 24 19
50 -19 93 -19 21 -35 43 -35 49 0 20 23 25 36 7 19 -26 38 -14 19 13 -19 26
-47 29 -69 6z"/>
<path d="M1239 513 c-9 -10 -14 -41 -14 -85 0 -57 3 -72 19 -84 27 -19 42 -18
66 6 28 28 29 139 2 163 -24 22 -56 22 -73 0z m59 -77 c2 -48 -1 -72 -10 -77
-24 -15 -38 12 -38 76 0 66 5 77 30 73 11 -3 16 -19 18 -72z"/>
<path d="M1370 435 c0 -57 4 -95 10 -95 6 0 10 26 11 58 l1 57 25 -57 c15 -32
30 -58 35 -58 4 0 8 43 8 95 0 57 -4 95 -10 95 -6 0 -10 -28 -10 -62 l-1 -63
-29 63 c-16 34 -31 62 -34 62 -3 0 -6 -43 -6 -95z"/>
<path d="M1507 523 c-10 -9 -9 -181 1 -185 4 -2 23 -1 42 3 31 6 32 7 8 8
l-28 1 0 90 c0 83 -5 101 -23 83z"/>
<path d="M1610 431 c0 -86 2 -100 15 -94 13 4 15 22 13 96 -2 61 -7 92 -15 95
-10 3 -13 -21 -13 -97z"/>
<path d="M1680 435 c0 -57 4 -95 10 -95 6 0 10 26 10 57 0 64 9 62 35 -9 10
-27 22 -48 26 -48 5 0 9 43 9 95 0 57 -4 95 -10 95 -6 0 -10 -28 -10 -62 l-1
-63 -26 63 c-14 34 -29 62 -34 62 -5 0 -9 -43 -9 -95z"/>
<path d="M1820 432 l0 -98 35 4 c38 5 49 19 13 18 -19 -1 -24 5 -26 32 -3 27
0 32 17 32 12 0 21 5 21 10 0 6 -9 10 -20 10 -16 0 -20 7 -20 35 0 31 3 35 25
35 14 0 25 5 25 10 0 6 -16 10 -35 10 l-35 0 0 -98z"/>
</g>
</svg>
